<svg xmlns="http://www.w3.org/2000/svg" width="133.776" height="91.578" viewBox="0 0 133.776 91.578">
  <g id="Group_71" data-name="Group 71" transform="translate(-201.003 -178.286)">
    <path id="Path_1" data-name="Path 1" d="M268.32,178.55c-6.317,1.6-42.625,14.1-44.411,15.25-2.233,1.4-14.166,16.909-20.355,26.481-3.573,5.488-3.382,9.571.51,10.465,1.914.383,23.418-4.849,24.567-6,.383-.383,3.318-4.594,6.445-9.444l5.807-8.742,15-4.53,14.931-4.467,3.063-5.743c3.318-6.253,3.829-9.444,1.914-11.8C274.637,178.614,270.872,177.848,268.32,178.55Zm6.317,1.85c2.233,2.169,1.978,4.02-1.276,10.337l-3.127,6.062-15.059,4.467-15.059,4.467-6.062,9.38-6.062,9.316-10.465,2.68c-10.4,2.68-13.017,3.063-14.357,2.17-1.212-.766-1.6-3.063-.893-4.977.893-2.3,16.782-24.567,19.781-27.757,1.978-2.042,9.252-5.551,10.018-4.786.128.128-1.149.7-2.935,1.34-4.211,1.4-5.679,2.616-10.465,8.806-4.849,6.189-5.232,6.891-4.148,6.509.447-.128,5.679-1.723,11.613-3.509s10.848-3.254,10.911-3.382c1.4-1.787,8.614-13.4,8.487-13.591a35.5,35.5,0,0,0-6.189,1.723c-3.318,1.021-6.126,1.787-6.253,1.6-.191-.128,3.382-1.468,7.912-2.871,4.467-1.468,12.507-4.02,17.739-5.807C268.766,179.252,272.978,178.678,274.637,180.4Z" transform="translate(0)" fill="#fff" fill-rule="evenodd"/>
    <path id="Path_2" data-name="Path 2" d="M280.867,185.091l-9.252,3.063-2.935,4.4c-1.6,2.489-3.509,5.488-4.275,6.764l-1.4,2.361,8.742-2.744c4.85-1.531,10.911-3.382,13.464-4.148l4.658-1.34,2.489-5.169c1.4-2.808,2.361-5.424,2.169-5.679C293.82,181.454,289.8,182.156,280.867,185.091Z" transform="translate(-22.437 -1.373)" fill="#eb803c" fill-rule="evenodd"/>
    <path id="Path_3" data-name="Path 3" d="M225.164,222.353l-10.592,3.19-4.084,5.679c-6.572,9-6.253,9.571,3.829,6.891,4.02-1.021,8.423-2.233,9.763-2.552,2.042-.574,2.871-1.34,6-6.189,6-9.38,6.636-10.337,6.126-10.273C235.884,219.1,230.971,220.566,225.164,222.353Z" transform="translate(-1.83 -14.769)" fill="#eb803c" fill-rule="evenodd"/>
    <path id="Path_4" data-name="Path 4" d="M299.106,238.578l-2.106.255v40.136h5.743V263.208l5.36-.319c4.594-.255,5.87-.574,8.487-2.17,7.721-4.722,7.976-16.016.383-20.483-2.552-1.468-3.7-1.723-9.38-1.85A74.051,74.051,0,0,0,299.106,238.578Zm13.847,5.169c2.68,1.34,3.829,3.382,3.829,6.891,0,4.913-3.829,7.912-10.209,7.912h-3.829V242.6h4.02A13.907,13.907,0,0,1,312.952,243.746Z" transform="translate(-34.742 -21.742)" fill="#fff" fill-rule="evenodd"/>
    <path id="Path_5" data-name="Path 5" d="M280,242.871v2.871h3.19c3.446,0,4.467-.957,4.467-4.084,0-1.6-.128-1.659-3.829-1.659H280Z" transform="translate(-28.59 -22.335)" fill="#eb803c" fill-rule="evenodd"/>
    <path id="Path_6" data-name="Path 6" d="M350.593,257.489l-2.489,2.489v-2.169c0-2.106-.064-2.17-2.552-2.17H343V284.99h5.743v-9.316c0-7.274.255-9.763,1.021-11.486a7.188,7.188,0,0,1,6.317-4.084c1.468,0,1.6-.255,1.6-2.552,0-2.489-.064-2.552-2.3-2.552C353.529,255,352.571,255.511,350.593,257.489Z" transform="translate(-51.39 -27.764)" fill="#fff" fill-rule="evenodd"/>
    <path id="Path_7" data-name="Path 7" d="M373.82,256.344c-4.977,2.489-7.721,7.529-7.721,14.293-.064,4.275,1.851,9.189,4.467,11.613,5.169,4.722,15,4.467,19.717-.638,6.955-7.274,5.041-21.568-3.382-25.4A17.5,17.5,0,0,0,373.82,256.344Zm10.529,4.148c3.829,2.489,5.424,8.231,3.765,13.847-3.382,11.613-16.335,8.423-16.335-4.02C371.778,261.64,378.35,256.472,384.349,260.492Z" transform="translate(-59.749 -27.767)" fill="#fff" fill-rule="evenodd"/>
    <path id="Path_8" data-name="Path 8" d="M277.621,271.506c0,8.487-.255,16.463-.638,17.675a8.1,8.1,0,0,1-2.233,3.51c-1.531,1.149-1.6,1.468-.893,3.318.83,2.489,1.021,2.552,3.765.638,5.1-3.446,5.743-6.317,5.743-26.034V256h-5.743Z" transform="translate(-26.21 -28.125)" fill="#fff" fill-rule="evenodd"/>
  </g>
</svg>
